<svg version="1.1" xmlns="http://www.w3.org/2000/svg" viewBox="0 0 1441.671875 646.13671875" width="1441.671875" height="646.13671875">
  <!-- svg-source:excalidraw -->
  
  <defs>
    <style class="style-fonts">
      @font-face {
        font-family: "Virgil";
        src: url("https://excalidraw.com/Virgil.woff2");
      }
      @font-face {
        font-family: "Cascadia";
        src: url("https://excalidraw.com/Cascadia.woff2");
      }
    </style>
  </defs>
  <rect x="0" y="0" width="1441.671875" height="646.13671875" fill="#f8f9fa"></rect><g stroke-linecap="round" transform="translate(10 10) rotate(0 710.8359375 313.068359375)"><path d="M32 0 M32 0 C430.88 0.74, 828.54 1.84, 1389.67 0 M32 0 C394.79 -1.75, 758.31 -1.24, 1389.67 0 M1389.67 0 C1412.22 -0.72, 1419.69 10.71, 1421.67 32 M1389.67 0 C1410.93 -0.78, 1420.73 8.41, 1421.67 32 M1421.67 32 C1421.01 160.44, 1419.86 289.03, 1421.67 594.14 M1421.67 32 C1420.37 212.14, 1420.55 392.09, 1421.67 594.14 M1421.67 594.14 C1422.57 615.11, 1410.67 627.27, 1389.67 626.14 M1421.67 594.14 C1422.22 613.47, 1412.25 627.45, 1389.67 626.14 M1389.67 626.14 C958.54 631.58, 526.51 631.79, 32 626.14 M1389.67 626.14 C983.58 631.17, 577.91 630.92, 32 626.14 M32 626.14 C11.79 625.2, 1.57 614.74, 0 594.14 M32 626.14 C10.09 626.08, 1.94 616.56, 0 594.14 M0 594.14 C0.96 465.75, 1.55 337, 0 32 M0 594.14 C-1.34 414.87, -1.12 235.8, 0 32 M0 32 C-1.51 9.87, 11.16 0.66, 32 0 M0 32 C0.48 11.47, 12.52 1.53, 32 0" stroke="#1e1e1e" stroke-width="2" fill="none"></path></g><g stroke-linecap="round" transform="translate(65.2578125 73.55078125) rotate(0 350.4609375 198.16796875)"><path d="M0.87 -1.73 L701.31 0.11 L699.87 397.33 L0.96 396.62" stroke="none" stroke-width="0" fill="#f8f1ee"></path><path d="M-0.33 -0.24 C148.64 1.77, 297.41 0.87, 701.14 0.39 M-0.29 -0.35 C178.34 2.3, 357.25 2.31, 701.06 -0.18 M701.45 0.07 C701.76 153.39, 701.88 306.89, 701.14 396.73 M701.32 -0.56 C700.62 121.62, 700 243.1, 701.2 395.77 M700.4 396.9 C500.39 394.12, 300.74 393.51, -0.24 395.56 M701.28 396.11 C474.97 397.46, 248.23 396.85, -0.11 396.53 M0.47 397.26 C-1.42 278.4, -1.47 162.52, -0.58 0.4 M0.29 396.8 C0.89 274.98, -0.16 153.47, 0.3 -0.35" stroke="#846358" stroke-width="2" fill="none"></path></g><g stroke-linecap="round" transform="translate(473.046875 231.78515625) rotate(0 24.375 24.5)"><path d="M33.54 1.96 C38.02 3.58, 43.02 7.91, 45.46 12.64 C47.89 17.38, 49.28 25.01, 48.15 30.37 C47.03 35.73, 42.91 41.63, 38.71 44.82 C34.51 48, 28.21 49.78, 22.98 49.46 C17.74 49.14, 11 46.45, 7.29 42.91 C3.59 39.36, 1.36 33.41, 0.74 28.17 C0.11 22.92, 0.8 15.95, 3.54 11.44 C6.28 6.93, 11.25 2.23, 17.19 1.1 C23.13 -0.03, 34.98 3.59, 39.17 4.65 C43.35 5.71, 42.55 7.3, 42.32 7.46 M28.44 0.59 C33.09 1.44, 39.44 5.24, 42.59 9.47 C45.75 13.7, 47.19 20.65, 47.37 25.98 C47.55 31.31, 46.82 37.86, 43.67 41.45 C40.51 45.04, 33.77 46.9, 28.42 47.53 C23.08 48.15, 16.12 47.94, 11.61 45.21 C7.1 42.49, 3.16 36.28, 1.36 31.18 C-0.45 26.08, -1.01 19.49, 0.78 14.61 C2.57 9.73, 7.53 4.06, 12.1 1.91 C16.68 -0.24, 25.18 1.82, 28.21 1.69 C31.24 1.57, 30.31 0.92, 30.28 1.17" stroke="none" stroke-width="0" fill="#d2bab0"></path><path d="M24.02 0.17 C28.79 -0.52, 34.62 1.17, 38.81 4.2 C42.99 7.24, 48.03 13.16, 49.1 18.37 C50.18 23.59, 47.87 30.76, 45.23 35.5 C42.6 40.23, 38.09 44.75, 33.29 46.79 C28.49 48.83, 21.32 49.4, 16.42 47.76 C11.52 46.12, 6.44 41.18, 3.89 36.93 C1.35 32.68, 0.34 27.22, 1.15 22.24 C1.96 17.26, 4.46 10.6, 8.73 7.06 C12.99 3.51, 23.27 2.08, 26.75 0.95 C30.23 -0.17, 29.74 0, 29.6 0.31 M29.04 -0.44 C33.56 -0.02, 37.74 3.47, 40.93 7.48 C44.11 11.5, 47.72 18.17, 48.13 23.66 C48.55 29.15, 46.59 36.29, 43.4 40.44 C40.21 44.59, 34.06 47.59, 28.99 48.55 C23.92 49.51, 17.73 48.51, 13 46.21 C8.27 43.91, 2.8 39.5, 0.62 34.74 C-1.56 29.98, -1.76 22.85, -0.07 17.68 C1.62 12.52, 6.1 6.73, 10.78 3.75 C15.45 0.76, 25.43 0.36, 27.99 -0.24 C30.55 -0.84, 26.1 -0.09, 26.15 0.14" stroke="#846358" stroke-width="1" fill="none"></path></g><g transform="translate(296.9375 42.078125) rotate(0 131.43191528320312 17.5)"><text x="0" y="0" font-family="Virgil, Segoe UI Emoji" font-size="28px" fill="#846358" text-anchor="start" style="white-space: pre;" direction="ltr" dominant-baseline="text-before-edge">openshift-monitoring</text></g><g stroke-linecap="round" transform="translate(95.72265625 181.140625) rotate(0 102.54296875 20.28515625)"><path d="M8.75 -0.22 L198.58 0.04 L205.05 5.01 L204.68 35.79 L201.22 36.84 L194.07 41.66 L4.68 37.98 L1.82 33.42 L1.91 8.73 L4.46 4.26 L8.28 -0.31" stroke="none" stroke-width="0" fill="#f8f1ee"></path><path d="M10.14 0 M10.14 0 C55.86 0.28, 104.37 -0.2, 194.94 0 M10.14 0 C78.99 0.89, 149.49 0.61, 194.94 0 M194.94 0 C201.43 0.8, 203.86 3.52, 205.09 10.14 M194.94 0 C202.78 -0.81, 204.7 3.6, 205.09 10.14 M205.09 10.14 C206.8 13.88, 203.9 17.54, 205.09 30.43 M205.09 10.14 C205.46 16.31, 205.76 21.1, 205.09 30.43 M205.09 30.43 C206.56 38.29, 201.22 40.82, 194.94 40.57 M205.09 30.43 C205.09 35.66, 202.23 41.69, 194.94 40.57 M194.94 40.57 C146.61 38.1, 100.26 38.85, 10.14 40.57 M194.94 40.57 C121.92 41.11, 47.14 41.42, 10.14 40.57 M10.14 40.57 C4.06 42.5, 1.55 36.17, 0 30.43 M10.14 40.57 C1.35 39.4, -0.25 39.21, 0 30.43 M0 30.43 C0.85 26.32, 0.36 20.79, 0 10.14 M0 30.43 C-0.46 22.59, 0.59 14.96, 0 10.14 M0 10.14 C-0.03 5.02, 1.57 0.75, 10.14 0 M0 10.14 C-2.19 3.65, 3.14 -0.46, 10.14 0" stroke="#343a40" stroke-width="2" fill="none"></path></g><g transform="translate(111.47572326660156 188.92578125) rotate(0 86.78990173339844 12.5)"><text x="86.78990173339844" y="0" font-family="Virgil, Segoe UI Emoji" font-size="20px" fill="#343a40" text-anchor="middle" style="white-space: pre;" direction="ltr" dominant-baseline="text-before-edge">prometheus-k8s-0</text></g><g stroke-linecap="round" transform="translate(96.7109375 300.48046875) rotate(0 102.54296875 20.28515625)"><path d="M8.86 0.6 L199.86 2.23 L205.07 5.65 L203.87 33.71 L201.81 37.23 L196.09 39.57 L6.88 40.84 L-0.3 34.57 L-1.35 11.98 L2.88 3.4 L11.85 1.01" stroke="none" stroke-width="0" fill="#f8f1ee"></path><path d="M10.14 0 M10.14 0 C82.76 0.07, 155.35 3.21, 194.94 0 M10.14 0 C78.83 0.17, 148.2 -0.44, 194.94 0 M194.94 0 C201.54 -0.46, 203.27 2.97, 205.09 10.14 M194.94 0 C200.14 -2.15, 205.04 2.72, 205.09 10.14 M205.09 10.14 C203.17 14.41, 206.21 22.4, 205.09 30.43 M205.09 10.14 C204.48 18.3, 204.7 25.1, 205.09 30.43 M205.09 30.43 C205.27 37.98, 200.6 39.93, 194.94 40.57 M205.09 30.43 C204.45 37.21, 199.75 38.96, 194.94 40.57 M194.94 40.57 C134.87 41.98, 74.95 42.18, 10.14 40.57 M194.94 40.57 C143.51 41.81, 90.68 41.51, 10.14 40.57 M10.14 40.57 C5.01 38.94, -1.11 35.9, 0 30.43 M10.14 40.57 C2.17 42.04, 0.54 38.25, 0 30.43 M0 30.43 C-1.23 23.07, 0.7 16.34, 0 10.14 M0 30.43 C0.93 26.57, 0.02 21.15, 0 10.14 M0 10.14 C-1.46 1.42, 4.98 1.59, 10.14 0 M0 10.14 C-0.96 1.67, 4.06 -2.07, 10.14 0" stroke="#343a40" stroke-width="2" fill="none"></path></g><g transform="translate(116.63400268554688 308.265625) rotate(0 82.61990356445312 12.5)"><text x="82.61990356445312" y="0" font-family="Virgil, Segoe UI Emoji" font-size="20px" fill="#343a40" text-anchor="middle" style="white-space: pre;" direction="ltr" dominant-baseline="text-before-edge">prometheus-k8s-1</text></g><g stroke-linecap="round"><g transform="translate(472.0491754665554 255.94179579852008) rotate(0 -83.13109081950904 -28.783582949317605)"><path d="M-0.81 1.1 C-11.48 -1.2, -36.87 -4.34, -64.57 -13.96 C-92.26 -23.59, -149.94 -49.49, -167 -56.65 M0.96 0.63 C-9.8 -2.01, -37.37 -5.93, -65.4 -15.81 C-93.44 -25.69, -149.84 -52.04, -167.22 -58.67" stroke="#000000" stroke-width="1" fill="none"></path></g><g transform="translate(472.0491754665554 255.94179579852008) rotate(0 -83.13109081950904 -28.783582949317605)"><path d="M-135.43 -56.78 C-143.98 -56.01, -151.42 -56.22, -166.59 -60.52 M-136.51 -56.39 C-146.74 -57.73, -154.87 -58.06, -167.49 -59.24" stroke="#000000" stroke-width="1" fill="none"></path></g><g transform="translate(472.0491754665554 255.94179579852008) rotate(0 -83.13109081950904 -28.783582949317605)"><path d="M-143.43 -37.89 C-149.93 -41.85, -155.34 -46.84, -166.59 -60.52 M-144.51 -37.49 C-152.29 -44.21, -158.13 -49.95, -167.49 -59.24" stroke="#000000" stroke-width="1" fill="none"></path></g></g><mask></mask><g transform="translate(377.2421875 281.32421875) rotate(0 152.67184448242188 10)"><text x="0" y="0" font-family="Virgil, Segoe UI Emoji" font-size="16px" fill="#1e1e1e" text-anchor="start" style="white-space: pre;" direction="ltr" dominant-baseline="text-before-edge">prometheus-k8s.openshift-monitoring.svc</text></g><g stroke-linecap="round" transform="translate(824.3515625 107.40234375) rotate(0 268.623046875 158.9453125)"><path d="M0.78 0.43 C191.33 1.07, 382.87 1.01, 537.97 -0.4 M0.28 0.17 C165.45 1.88, 331.26 1.49, 536.95 0.34 M536.1 0.49 C535.07 69.27, 536.59 138.09, 536.86 316.49 M537.85 -0.2 C539.45 76.77, 538.4 152.85, 537.72 317.53 M537.63 318.38 C347.86 320.4, 157.89 320.07, -0.64 318.14 M536.99 318.11 C322.46 317.85, 108.55 318.16, -0.14 318.12 M0.6 319.22 C-3.44 242.57, -3.28 167.7, 0.04 1.12 M0.69 317.51 C1.09 220.51, 1.19 124.88, -0.38 -0.51" stroke="#1971c2" stroke-width="2" fill="none"></path></g><g stroke-linecap="round" transform="translate(840.4140625 152.0234375) rotate(0 103.552734375 25)"><path d="M13.39 -0.42 L196.82 1.33 L202.67 4.96 L206.87 7.89 L208.8 38.45 L202.91 45.12 L193.11 50.05 L11.17 49.89 L3.71 49.83 L2.73 41.88 L-0.63 10.54 L2.76 4.15 L11.42 -1.44" stroke="none" stroke-width="0" fill="#e7f5ff"></path><path d="M12.5 0 M12.5 0 C70.24 2.23, 132.81 2.76, 194.61 0 M12.5 0 C78.85 -0.88, 143.84 0.49, 194.61 0 M194.61 0 C204.4 1.86, 208.51 3.35, 207.11 12.5 M194.61 0 C203.45 1.62, 209.17 2.94, 207.11 12.5 M207.11 12.5 C206.16 19.62, 208.48 25.29, 207.11 37.5 M207.11 12.5 C206.63 18.78, 206.05 26.51, 207.11 37.5 M207.11 37.5 C205.25 46.09, 202.37 48.4, 194.61 50 M207.11 37.5 C206.03 47.81, 201.59 50.94, 194.61 50 M194.61 50 C135.83 48.03, 72.87 49.4, 12.5 50 M194.61 50 C129.61 49.48, 67.04 48.59, 12.5 50 M12.5 50 C2.46 49.3, 1.4 45.79, 0 37.5 M12.5 50 C3.74 48.62, 0.95 44.83, 0 37.5 M0 37.5 C1.73 31.7, 0.87 25.46, 0 12.5 M0 37.5 C0.74 29.26, 0.63 22.33, 0 12.5 M0 12.5 C0.09 4.69, 2.83 0.97, 12.5 0 M0 12.5 C1.35 2.84, 5.3 -1.55, 12.5 0" stroke="#000000" stroke-width="1" fill="none"></path></g><g transform="translate(883.3988265991211 157.0234375) rotate(0 60.567970275878906 20)"><text x="60.567970275878906" y="0" font-family="Virgil, Segoe UI Emoji" font-size="16px" fill="#000000" text-anchor="middle" style="white-space: pre;" direction="ltr" dominant-baseline="text-before-edge">federate-cmo </text><text x="60.567970275878906" y="20" font-family="Virgil, Segoe UI Emoji" font-size="16px" fill="#000000" text-anchor="middle" style="white-space: pre;" direction="ltr" dominant-baseline="text-before-edge">MonitoringStack</text></g><g stroke-linecap="round" transform="translate(1029.984375 233.30859375) rotate(0 131 17)"><path d="M6.57 1.73 L253.29 -0.72 L258.38 1.58 L261.13 3.97 L260.4 25.94 L261.52 30.53 L251.79 33.3 L9.9 33.95 L1.76 30.68 L0.83 24.63 L-0.03 6.63 L2.21 4.09 L9.5 1.1" stroke="none" stroke-width="0" fill="#a5d8ff"></path><path d="M8.5 0 M8.5 0 C100.39 -0.25, 192.73 -0.44, 253.5 0 M8.5 0 C76.88 -0.13, 146.85 -1.01, 253.5 0 M253.5 0 C260.15 -1.35, 262.6 2.83, 262 8.5 M253.5 0 C258.23 -2.19, 262.02 3.15, 262 8.5 M262 8.5 C263.32 12.44, 262.42 15.95, 262 25.5 M262 8.5 C262.22 14.05, 262.06 18.36, 262 25.5 M262 25.5 C263.39 30.69, 257.55 35.55, 253.5 34 M262 25.5 C262.34 32.23, 257.97 33.03, 253.5 34 M253.5 34 C176.79 33.26, 98.59 32.75, 8.5 34 M253.5 34 C184.21 32.13, 114.83 32.65, 8.5 34 M8.5 34 C2.36 32.73, 1.94 31.75, 0 25.5 M8.5 34 C1.39 32.95, 2.09 29.43, 0 25.5 M0 25.5 C-0.36 19.06, 1.39 14.5, 0 8.5 M0 25.5 C-0.34 21.85, 0.75 17.33, 0 8.5 M0 8.5 C-1.24 2.48, 4.65 -1.98, 8.5 0 M0 8.5 C-1.44 3.54, 3.95 -1.31, 8.5 0" stroke="#000000" stroke-width="1" fill="none"></path></g><g transform="translate(1063.0404510498047 240.30859375) rotate(0 97.94392395019531 10)"><text x="97.94392395019531" y="0" font-family="Virgil, Segoe UI Emoji" font-size="16px" fill="#000000" text-anchor="middle" style="white-space: pre;" direction="ltr" dominant-baseline="text-before-edge">federate-com-prometheus</text></g><g stroke-linecap="round"><g transform="translate(1047.19140625 194.13804179553293) rotate(0 29.930826806559253 19.587850849962294)"><path d="M-0.67 0.65 C8.27 2.33, 43.23 3.51, 53.42 9.76 C63.62 16.01, 59.55 33.29, 60.48 38.16 M1.18 -0.05 C10 1.28, 42.83 1.28, 52.64 7.82 C62.45 14.37, 59.02 33.81, 60.05 39.22" stroke="#000000" stroke-width="1" fill="none"></path></g><g transform="translate(1047.19140625 194.13804179553293) rotate(0 29.930826806559253 19.587850849962294)"><path d="M55.38 25.63 C56.53 30.03, 57.03 32.17, 60.49 39.56 M54.84 25.59 C55.61 29.56, 57.52 32.81, 60.41 39.63" stroke="#000000" stroke-width="1" fill="none"></path></g><g transform="translate(1047.19140625 194.13804179553293) rotate(0 29.930826806559253 19.587850849962294)"><path d="M65.64 25.37 C63.88 29.79, 61.46 32, 60.49 39.56 M65.1 25.33 C62.95 29.31, 61.94 32.65, 60.41 39.63" stroke="#000000" stroke-width="1" fill="none"></path></g></g><mask></mask><g stroke-linecap="round" transform="translate(553.4140625 155.26171875) rotate(0 99.5 25)"><path d="M10.5 0.06 L188.82 0.21 L194.27 3.09 L199.24 6.58 L197.67 41.44 L196.58 48.58 L186.44 48.59 L7.67 50.56 L5.27 50.11 L-0.11 43.71 L1.24 14.26 L3.01 2.57 L14.28 -1.08" stroke="none" stroke-width="0" fill="#4dabf7"></path><path d="M12.5 0 M12.5 0 C54.25 0.99, 97.4 -1.32, 186.5 0 M12.5 0 C68.59 -0.57, 123.86 -0.78, 186.5 0 M186.5 0 C195.92 -1.28, 198.05 2.96, 199 12.5 M186.5 0 C194.79 1.59, 198.55 5.68, 199 12.5 M199 12.5 C198.81 22.31, 200.31 29.44, 199 37.5 M199 12.5 C198.38 18.04, 198.29 25.34, 199 37.5 M199 37.5 C199.92 46.02, 194.42 50.86, 186.5 50 M199 37.5 C199.75 44.85, 195.36 50.07, 186.5 50 M186.5 50 C122.35 50.67, 55.83 48.13, 12.5 50 M186.5 50 C142.7 49.41, 100.29 49.57, 12.5 50 M12.5 50 C5.76 50.63, 1.51 46.38, 0 37.5 M12.5 50 C2.78 49.88, 2.11 43.99, 0 37.5 M0 37.5 C-1.58 30.37, -0.62 22.52, 0 12.5 M0 37.5 C-0.11 29.93, 0.36 24.76, 0 12.5 M0 12.5 C-0.03 6.09, 5.03 1.29, 12.5 0 M0 12.5 C0.11 2.03, 6.03 -0.68, 12.5 0" stroke="#000000" stroke-width="2" fill="none"></path></g><g transform="translate(597.4660873413086 160.26171875) rotate(0 55.447975158691406 20)"><text x="55.447975158691406" y="0" font-family="Virgil, Segoe UI Emoji" font-size="16px" fill="#000000" text-anchor="middle" style="white-space: pre;" direction="ltr" dominant-baseline="text-before-edge">federate-cmo</text><text x="55.447975158691406" y="20" font-family="Virgil, Segoe UI Emoji" font-size="16px" fill="#000000" text-anchor="middle" style="white-space: pre;" direction="ltr" dominant-baseline="text-before-edge">ServiceMonitor</text></g><g stroke-linecap="round"><g transform="translate(552.4140625 174.6066512784928) rotate(0 -27.577430600184243 29.79241684835516)"><path d="M-0.48 -0.12 C-8.91 0.95, -41.89 -4.77, -50.75 5.54 C-59.62 15.85, -53.17 52.66, -53.66 61.76 M1.47 -1.24 C-7.13 -0.41, -42.57 -6.27, -51.85 3.92 C-61.13 14.11, -53.99 50.4, -54.23 59.89" stroke="#1971c2" stroke-width="2" fill="none"></path></g><g transform="translate(552.4140625 174.6066512784928) rotate(0 -27.577430600184243 29.79241684835516)"><path d="M-66.14 33.77 C-61.15 42.33, -57.85 49.66, -55.43 59.79 M-66.23 34.95 C-62.38 44.28, -57.31 53.94, -54.51 60.73" stroke="#1971c2" stroke-width="2" fill="none"></path></g><g transform="translate(552.4140625 174.6066512784928) rotate(0 -27.577430600184243 29.79241684835516)"><path d="M-46.91 32.25 C-47.49 41.18, -49.74 48.94, -55.43 59.79 M-47.01 33.43 C-50.7 43.32, -53.16 53.58, -54.51 60.73" stroke="#1971c2" stroke-width="2" fill="none"></path></g></g><mask></mask><g stroke-linecap="round"><g transform="translate(472.0581874714719 257.04650299007886) rotate(0 -83.83820379397932 29.89245903483176)"><path d="M0.3 0.66 C-27.59 10.66, -139.11 49.84, -167 59.83 M-1 -0.05 C-29.09 9.6, -140.16 48.07, -167.98 57.88" stroke="#343a40" stroke-width="1" fill="none"></path></g><g transform="translate(472.0581874714719 257.04650299007886) rotate(0 -83.83820379397932 29.89245903483176)"><path d="M-143.65 38.81 C-151.89 45.04, -158.28 52.29, -167.13 57.46 M-144.33 38.44 C-152.03 46.61, -162.03 53.58, -168.29 57.11" stroke="#343a40" stroke-width="1" fill="none"></path></g><g transform="translate(472.0581874714719 257.04650299007886) rotate(0 -83.83820379397932 29.89245903483176)"><path d="M-136.89 58.19 C-147.32 58.04, -155.95 58.9, -167.13 57.46 M-137.56 57.82 C-147.82 59.11, -160.24 59.16, -168.29 57.11" stroke="#343a40" stroke-width="1" fill="none"></path></g></g><mask></mask><g stroke-linecap="round"><g transform="translate(1023.7906634784522 249.52454493389132) rotate(0 -249.89501491814872 2.6777136145582574)"><path d="M-0.5 1.21 C-84.08 1.82, -416.34 2.91, -499.29 4.14" stroke="#1971c2" stroke-width="2.5" fill="none" stroke-dasharray="8 10"></path></g><g transform="translate(1023.7906634784522 249.52454493389132) rotate(0 -249.89501491814872 2.6777136145582574)"><path d="M-469.45 -4.25 C-484.29 1.19, -488.51 -0.16, -497.17 3.84" stroke="#1971c2" stroke-width="2.5" fill="none"></path></g><g transform="translate(1023.7906634784522 249.52454493389132) rotate(0 -249.89501491814872 2.6777136145582574)"><path d="M-469.28 16.27 C-484.26 13.95, -488.54 4.84, -497.17 3.84" stroke="#1971c2" stroke-width="2.5" fill="none"></path></g></g><mask></mask><g transform="translate(1013.8298034667969 77.71484375) rotate(0 90.4119644165039 17.5)"><text x="0" y="0" font-family="Virgil, Segoe UI Emoji" font-size="28px" fill="#1971c2" text-anchor="start" style="white-space: pre;" direction="ltr" dominant-baseline="text-before-edge">federate-cmo</text></g><g stroke-linecap="round" transform="translate(385.51171875 508.0625) rotate(0 99.5 25)"><path d="M10.93 -0.49 L189.48 -0.06 L194.8 1.78 L197.41 7.24 L200.42 40.44 L194.99 48.62 L186.75 51.74 L10.3 51.2 L3.76 47.99 L-0.04 44.9 L-0.24 12.2 L3.01 3.02 L11.94 1" stroke="none" stroke-width="0" fill="#f8f1ee"></path><path d="M12.5 0 M12.5 0 C52.3 0.28, 89.48 -0.07, 186.5 0 M12.5 0 C46.87 -1.03, 82.96 -0.71, 186.5 0 M186.5 0 C194.18 1.18, 198.64 4.55, 199 12.5 M186.5 0 C194.41 1.9, 200.45 4.34, 199 12.5 M199 12.5 C197.19 21.48, 201.01 31.37, 199 37.5 M199 12.5 C199.05 21.16, 198.3 28.64, 199 37.5 M199 37.5 C198.61 44.93, 193.24 51.87, 186.5 50 M199 37.5 C200.22 46.51, 193.77 49.56, 186.5 50 M186.5 50 C125.03 48.64, 63.2 50.35, 12.5 50 M186.5 50 C119.55 48.26, 53.63 48.16, 12.5 50 M12.5 50 C5.11 50.69, 1.69 47.11, 0 37.5 M12.5 50 C5.29 49.31, -0.74 47.15, 0 37.5 M0 37.5 C-0.82 26.81, 0.82 19.53, 0 12.5 M0 37.5 C0.39 27.75, -0.6 17.9, 0 12.5 M0 12.5 C1.17 2.52, 3.65 -0.44, 12.5 0 M0 12.5 C0.06 5.47, 4.11 -0.72, 12.5 0" stroke="#343a40" stroke-width="2" fill="none"></path></g><g transform="translate(399.03578186035156 513.0625) rotate(0 85.97593688964844 20)"><text x="85.97593688964844" y="0" font-family="Virgil, Segoe UI Emoji" font-size="16px" fill="#343a40" text-anchor="middle" style="white-space: pre;" direction="ltr" dominant-baseline="text-before-edge">cluster-monitoring-view</text><text x="85.97593688964844" y="20" font-family="Virgil, Segoe UI Emoji" font-size="16px" fill="#343a40" text-anchor="middle" style="white-space: pre;" direction="ltr" dominant-baseline="text-before-edge">ClusterRole</text></g><g stroke-linecap="round" transform="translate(722.880859375 501.98046875) rotate(0 103.552734375 25)"><path d="M14.3 0.54 L196.49 1.48 L203.29 2.43 L208.08 5.09 L208.24 41.58 L204.72 47.61 L196.39 48.12 L10.51 50 L5.69 48.24 L2.42 44.09 L0.81 10.81 L3.49 5.04 L10.95 -1.64" stroke="none" stroke-width="0" fill="#e7f5ff"></path><path d="M12.5 0 M12.5 0 C74.4 0.68, 139.44 -0.09, 194.61 0 M12.5 0 C81.89 -1.68, 150.26 -1.07, 194.61 0 M194.61 0 C204.05 -1.19, 206.41 2.9, 207.11 12.5 M194.61 0 C202.3 0.04, 207.39 3.41, 207.11 12.5 M207.11 12.5 C208.73 17.09, 205.62 24.72, 207.11 37.5 M207.11 12.5 C207.85 17.24, 206.98 22.44, 207.11 37.5 M207.11 37.5 C206.8 45.86, 203.75 49.94, 194.61 50 M207.11 37.5 C208.24 44.6, 201.74 50.38, 194.61 50 M194.61 50 C155.39 50.13, 121.2 48.23, 12.5 50 M194.61 50 C157.77 52.26, 119.8 51.51, 12.5 50 M12.5 50 C3.54 49.5, -1.47 44.08, 0 37.5 M12.5 50 C3.97 52.29, 1.83 47.32, 0 37.5 M0 37.5 C-1.14 29.24, 1.77 18.15, 0 12.5 M0 37.5 C-0.36 32.73, -1.16 27.06, 0 12.5 M0 12.5 C-1.46 3.99, 5.65 -1.68, 12.5 0 M0 12.5 C-2.06 5.86, 1.93 -0.52, 12.5 0" stroke="#000000" stroke-width="1" fill="none"></path></g><g transform="translate(743.6016616821289 506.98046875) rotate(0 82.8319320678711 20)"><text x="82.8319320678711" y="0" font-family="Virgil, Segoe UI Emoji" font-size="16px" fill="#000000" text-anchor="middle" style="white-space: pre;" direction="ltr" dominant-baseline="text-before-edge">federate-cmo-ms-view</text><text x="82.8319320678711" y="20" font-family="Virgil, Segoe UI Emoji" font-size="16px" fill="#000000" text-anchor="middle" style="white-space: pre;" direction="ltr" dominant-baseline="text-before-edge">ClusterRoleBinding</text></g><g stroke-linecap="round"><g transform="translate(1062.0812292907474 345.40234375) rotate(0 -64.55331589256286 90.77358345650357)"><path d="M0 0 C-2.31 26.44, 7.72 128.38, -13.86 158.64 C-35.44 188.9, -110.21 177.73, -129.48 181.55 M0 0 C-2.31 26.44, 7.72 128.38, -13.86 158.64 C-35.44 188.9, -110.21 177.73, -129.48 181.55" stroke="#4dabf7" stroke-width="2" fill="none"></path></g><g transform="translate(1062.0812292907474 345.40234375) rotate(0 -64.55331589256286 90.77358345650357)"><path d="M-101.62 170.42 C-111.66 174.43, -121.7 178.44, -129.48 181.55 M-101.62 170.42 C-109.46 173.55, -117.3 176.68, -129.48 181.55" stroke="#4dabf7" stroke-width="2" fill="none"></path></g><g transform="translate(1062.0812292907474 345.40234375) rotate(0 -64.55331589256286 90.77358345650357)"><path d="M-100.99 190.93 C-111.26 187.55, -121.53 184.17, -129.48 181.55 M-100.99 190.93 C-109 188.29, -117.02 185.65, -129.48 181.55" stroke="#4dabf7" stroke-width="2" fill="none"></path></g></g><mask></mask><g stroke-linecap="round"><g transform="translate(586.37109375 529.6985697973691) rotate(0 67.65540333547165 -1.2239142965192116)"><path d="M0.78 -0.92 C23.46 -1.44, 112.99 -3.23, 135.59 -3.66 M-0.28 1.22 C22.31 0.91, 111.95 -1.73, 134.68 -2.32" stroke="#4dabf7" stroke-width="2" fill="none"></path></g><g transform="translate(586.37109375 529.6985697973691) rotate(0 67.65540333547165 -1.2239142965192116)"><path d="M105.25 8.85 C113.33 7.18, 120.66 3.68, 134.23 -3.63 M106.6 8.11 C113.8 5.59, 120.32 4.15, 134.03 -2.28" stroke="#4dabf7" stroke-width="2" fill="none"></path></g><g transform="translate(586.37109375 529.6985697973691) rotate(0 67.65540333547165 -1.2239142965192116)"><path d="M104.69 -11.67 C112.81 -8.11, 120.29 -6.4, 134.23 -3.63 M106.03 -12.4 C113.42 -10.17, 120.06 -6.84, 134.03 -2.28" stroke="#4dabf7" stroke-width="2" fill="none"></path></g></g><mask></mask><g stroke-linecap="round" transform="translate(502.8515625 329.08203125) rotate(0 99.5 25)"><path d="M-1.98 1.59 L200.55 -1.54 L200.98 49.85 L1.55 49.39" stroke="none" stroke-width="0" fill="#f8f1ee"></path><path d="M-0.01 -0.36 C45.37 0.64, 92.02 0.72, 200.1 -1.29 M-0.26 0.64 C60.91 0.2, 120.67 0.58, 199.25 0.84 M197.02 1.48 C198.58 12.03, 198.75 23.61, 199.64 51.93 M198.09 0.27 C198.26 11.68, 198.75 24.97, 198.1 50.43 M198.88 48.83 C154.37 50.39, 113.1 48.92, 1.63 50.86 M198.31 50.75 C157.86 50.08, 115.46 50.36, 0.79 49.05 M-0.81 50.45 C0.98 36.79, 0.55 21.66, -0.06 -0.23 M-0.03 49.87 C-0.54 38.14, 1.16 27.97, -0.6 -0.89" stroke="#1e1e1e" stroke-width="1" fill="none"></path></g><g transform="translate(513.2236328125 334.08203125) rotate(0 89.1279296875 20)"><text x="89.1279296875" y="0" font-family="Virgil, Segoe UI Emoji" font-size="16px" fill="#1e1e1e" text-anchor="middle" style="white-space: pre;" direction="ltr" dominant-baseline="text-before-edge">serving-certs-ca-bundle</text><text x="89.1279296875" y="20" font-family="Virgil, Segoe UI Emoji" font-size="16px" fill="#1e1e1e" text-anchor="middle" style="white-space: pre;" direction="ltr" dominant-baseline="text-before-edge">ConfigMap</text></g><g stroke-linecap="round" transform="translate(502.6953125 384.625) rotate(0 99.5 25)"><path d="M-0.89 -0.91 L197.59 0.44 L200.44 49.22 L0.04 49.16" stroke="none" stroke-width="0" fill="#f8f1ee"></path><path d="M-0.8 -0.11 C61.54 2.09, 124.34 2.67, 199.92 -0.41 M0.2 0.48 C79.64 1.8, 157.54 1.6, 198.39 0.73 M197.22 -1.04 C200.78 16.08, 199.69 34.35, 198.18 51.3 M199.58 -0.24 C198.74 20.18, 199.5 39.26, 200 49.92 M200.06 48.22 C156.04 51.19, 115.36 50.57, 0.6 48.95 M198.22 49.85 C138.65 50.5, 78.31 51.43, 0.86 49.45 M-1.06 50.11 C-1.04 38.36, -0.69 21.82, -0.86 1.98 M0.77 49.83 C0.92 34, -0.18 16.47, -0.13 -0.73" stroke="#1e1e1e" stroke-width="1" fill="none"></path></g><g transform="translate(526.9073715209961 389.625) rotate(0 75.2879409790039 20)"><text x="75.2879409790039" y="0" font-family="Virgil, Segoe UI Emoji" font-size="16px" fill="#1e1e1e" text-anchor="middle" style="white-space: pre;" direction="ltr" dominant-baseline="text-before-edge">metrics-client-certs</text><text x="75.2879409790039" y="20" font-family="Virgil, Segoe UI Emoji" font-size="16px" fill="#1e1e1e" text-anchor="middle" style="white-space: pre;" direction="ltr" dominant-baseline="text-before-edge">Secret</text></g><g stroke-linecap="round"><g transform="translate(735.64453125 204.4453125) rotate(0 -15.965059384703636 75.60454012302232)"><path d="M-0.12 -0.66 C-0.6 57.24, -0.48 114.02, 2.28 151 M-0.38 0.77 C0.75 59.12, 0.97 116.47, 1.03 149.9 M-0.46 151.86 C-8.75 152.05, -19.18 150.09, -34.21 150.9 M1.83 149.82 C-12.34 150.43, -24.78 149.67, -32.5 149.77" stroke="#1971c2" stroke-width="2" fill="none"></path></g><g transform="translate(735.64453125 204.4453125) rotate(0 -15.965059384703636 75.60454012302232)"><path d="M-16.74 143.62 C-23.66 147.05, -29.78 149.54, -31.3 150.56 M-16.96 144.82 C-22.39 147.2, -28.63 148.62, -32.35 149.63" stroke="#1971c2" stroke-width="2" fill="none"></path></g><g transform="translate(735.64453125 204.4453125) rotate(0 -15.965059384703636 75.60454012302232)"><path d="M-16.85 155.12 C-23.76 154.24, -29.84 152.41, -31.3 150.56 M-17.07 156.32 C-22.45 154.24, -28.65 151.2, -32.35 149.63" stroke="#1971c2" stroke-width="2" fill="none"></path></g></g><mask></mask><g stroke-linecap="round" transform="translate(1040.9921875 304.9453125) rotate(0 131 25)"><path d="M12.93 0.89 L253.63 0.86 L257.37 2.74 L260.74 5.81 L261.9 40.53 L260.54 47.47 L247.6 48.04 L10.46 50.59 L3.57 48.56 L1.52 42.71 L0.49 10.74 L2.11 2.75 L12.92 0.83" stroke="none" stroke-width="0" fill="#a5d8ff"></path><path d="M12.5 0 M12.5 0 C78.5 -0.78, 146.07 -0.34, 249.5 0 M12.5 0 C94.27 -0.24, 175.47 -0.34, 249.5 0 M249.5 0 C256.07 -0.16, 263.83 3.36, 262 12.5 M249.5 0 C259.09 -1.66, 264.03 4.23, 262 12.5 M262 12.5 C264.08 18.27, 262.29 23.29, 262 37.5 M262 12.5 C262.89 21.04, 261.02 29.91, 262 37.5 M262 37.5 C262.91 46.22, 257.89 48.58, 249.5 50 M262 37.5 C260.05 47.7, 256.05 51.56, 249.5 50 M249.5 50 C192.68 52.78, 132.17 50.24, 12.5 50 M249.5 50 C184.14 48.93, 120.12 49.69, 12.5 50 M12.5 50 C5.51 49.02, -0.09 44.42, 0 37.5 M12.5 50 C1.91 51.28, -1.09 46.54, 0 37.5 M0 37.5 C1.55 31.42, -0.26 20.66, 0 12.5 M0 37.5 C0.05 28.65, -0.16 19.22, 0 12.5 M0 12.5 C-0.48 2.39, 5.23 -1.18, 12.5 0 M0 12.5 C-2.16 3.23, 1.98 0.06, 12.5 0" stroke="#000000" stroke-width="1" fill="none"></path></g><g transform="translate(1074.0482635498047 309.9453125) rotate(0 97.94392395019531 20)"><text x="97.94392395019531" y="0" font-family="Virgil, Segoe UI Emoji" font-size="16px" fill="#000000" text-anchor="middle" style="white-space: pre;" direction="ltr" dominant-baseline="text-before-edge">federate-com-prometheus</text><text x="97.94392395019531" y="20" font-family="Virgil, Segoe UI Emoji" font-size="16px" fill="#000000" text-anchor="middle" style="white-space: pre;" direction="ltr" dominant-baseline="text-before-edge">ServiceAccount</text></g><g stroke-linecap="round"><g transform="translate(736.6109929606318 207.2170527279377) rotate(0 -14.649859253433931 101.13716577380264)"><path d="M1.35 0.45 C1.34 62.82, 1.23 124.71, 2.48 199.49 M0.79 -0.04 C2.55 73.73, 3.2 148.58, 2.45 201.17 M1.8 202.31 C-8.98 199.57, -17 201.7, -30.64 201.8 M2.39 199.98 C-9.29 202, -18.7 200.49, -32.06 200.66" stroke="#1971c2" stroke-width="2" fill="none"></path></g><g transform="translate(736.6109929606318 207.2170527279377) rotate(0 -14.649859253433931 101.13716577380264)"><path d="M-14.59 195.46 C-20.9 196.71, -26.56 197.47, -31.27 199.39 M-15.13 195 C-21.19 196.86, -27.12 199.68, -31.31 200.99" stroke="#1971c2" stroke-width="2" fill="none"></path></g><g transform="translate(736.6109929606318 207.2170527279377) rotate(0 -14.649859253433931 101.13716577380264)"><path d="M-14.76 207.18 C-21.07 204.75, -26.68 201.85, -31.27 199.39 M-15.3 206.71 C-21.38 204.26, -27.25 202.75, -31.31 200.99" stroke="#1971c2" stroke-width="2" fill="none"></path></g></g><mask></mask><g stroke-linecap="round" transform="translate(1054.546875 312.8125) rotate(0 6.509765625 6.646484375)"><path d="M6.32 0.87 C7.85 0.91, 9.53 0.94, 10.74 1.7 C11.95 2.47, 13.43 4.04, 13.6 5.48 C13.77 6.91, 12.69 8.96, 11.78 10.32 C10.86 11.68, 9.24 13.14, 8.12 13.63 C7 14.11, 6.14 13.78, 5.07 13.25 C3.99 12.72, 2.44 11.63, 1.65 10.46 C0.85 9.29, 0.27 7.82, 0.3 6.21 C0.32 4.6, 0.44 1.96, 1.8 0.8 C3.17 -0.37, 7.25 -0.86, 8.48 -0.76 C9.7 -0.65, 9.13 1.33, 9.14 1.43 M5.64 -0.93 C7.13 -0.74, 8.74 1.53, 10.03 2.36 C11.32 3.18, 12.73 2.7, 13.37 4 C14.01 5.3, 14.54 8.62, 13.87 10.14 C13.2 11.66, 10.57 12.63, 9.33 13.11 C8.09 13.59, 7.58 13.69, 6.44 13.04 C5.29 12.39, 3.59 10.42, 2.47 9.21 C1.35 8.01, -0.21 7.02, -0.28 5.82 C-0.35 4.62, 1.01 3.05, 2.06 2.02 C3.1 0.98, 5.31 -0.19, 5.99 -0.38 C6.67 -0.57, 6.27 0.96, 6.13 0.9" stroke="#1971c2" stroke-width="2" fill="none"></path></g><g stroke-linecap="round" transform="translate(1050.8671875 328.12109375) rotate(0 9.775390625 8.140625)"><path d="M3.14 -1.95 L18.34 -0.53 L20.15 3.6 L20.49 15.06 L14.95 14.68 L1.38 13.89 L0.21 1.71 L2.25 -1.15" stroke="none" stroke-width="0" fill="#228be6"></path><path d="M4.07 0 M4.07 0 C6.76 -0.21, 10.06 0.82, 15.48 0 M4.07 0 C5.98 0.13, 9.32 -0.22, 15.48 0 M15.48 0 C18.31 -1.53, 18.7 3.01, 19.55 4.07 M15.48 0 C17.83 -1.21, 21.1 3.62, 19.55 4.07 M19.55 4.07 C19.89 5.7, 19.42 8.4, 19.55 12.21 M19.55 4.07 C19.27 6.97, 19.59 10.16, 19.55 12.21 M19.55 12.21 C19.42 15.19, 17.12 17.26, 15.48 16.28 M19.55 12.21 C21.26 14.76, 17.52 18.1, 15.48 16.28 M15.48 16.28 C12.77 16.61, 6.77 16.29, 4.07 16.28 M15.48 16.28 C12.95 16.39, 9.23 16.12, 4.07 16.28 M4.07 16.28 C1.02 16.26, -0.33 15.9, 0 12.21 M4.07 16.28 C3.61 17.67, -1.07 17.12, 0 12.21 M0 12.21 C-0.04 9.26, 0.08 6.96, 0 4.07 M0 12.21 C0.29 10.27, -0.06 9.19, 0 4.07 M0 4.07 C0.78 2.58, -0.36 0.91, 4.07 0 M0 4.07 C-1.1 1.87, 2.31 1.24, 4.07 0" stroke="#1971c2" stroke-width="2" fill="none"></path></g><g stroke-linecap="round"><g transform="translate(1175.7017533925628 302.5545415434965) rotate(0 -1.9244037078736937 -18.97251029349644)"><path d="M0 0 C-0.15 -2.5, -0.26 -8.65, -0.91 -14.98 C-1.55 -21.3, -3.36 -34.12, -3.85 -37.95 M0 0 C-0.15 -2.5, -0.26 -8.65, -0.91 -14.98 C-1.55 -21.3, -3.36 -34.12, -3.85 -37.95" stroke="#1971c2" stroke-width="2" fill="none"></path></g><g transform="translate(1175.7017533925628 302.5545415434965) rotate(0 -1.9244037078736937 -18.97251029349644)"><path d="M1.52 -27.69 C0.03 -30.54, -1.47 -33.4, -3.85 -37.95 M1.52 -27.69 C0.02 -30.56, -1.49 -33.43, -3.85 -37.95" stroke="#1971c2" stroke-width="2" fill="none"></path></g><g transform="translate(1175.7017533925628 302.5545415434965) rotate(0 -1.9244037078736937 -18.97251029349644)"><path d="M-6.33 -26.64 C-5.64 -29.79, -4.95 -32.94, -3.85 -37.95 M-6.33 -26.64 C-5.63 -29.8, -4.94 -32.97, -3.85 -37.95" stroke="#1971c2" stroke-width="2" fill="none"></path></g></g><mask></mask><g stroke-linecap="round" transform="translate(1225.28515625 453.0390625) rotate(0 6.346061706542969 7.369140625)"><path d="M1.58 2 L13.43 1.87 L13.41 14.03 L1.23 15.34" stroke="none" stroke-width="0" fill="#1971c2"></path><path d="M0.64 0.99 C3.9 0.91, 6.32 -0.61, 13.71 -0.64 M0.61 0.41 C4.83 0.55, 8.7 -0.19, 12.87 -0.18 M13.61 -1.44 C13.3 6.47, 14.02 9.14, 14.17 15.8 M12.48 0.44 C12.49 5.17, 12.55 12.11, 12.07 14.73 M13.28 14.68 C9.45 14.09, 5.76 14.91, 0.23 13.65 M12.06 14.97 C9.13 14.17, 7.06 14.59, -0.58 14.57 M-0.99 15.14 C0.38 8.16, -0.18 3.47, 0.58 -0.24 M-0.57 14.74 C-0.58 9.78, 0.58 6.54, 0.07 0.18" stroke="#1971c2" stroke-width="1" fill="none"></path></g><g transform="translate(1249 450.83984375) rotate(0 58.97596740722656 10)"><text x="0" y="0" font-family="Virgil, Segoe UI Emoji" font-size="16px" fill="#1971c2" text-anchor="start" style="white-space: pre;" direction="ltr" dominant-baseline="text-before-edge">ObO Resources</text></g><g stroke-linecap="round" transform="translate(1226.7191886901855 483.23828125) rotate(0 5.504264831542969 5.935546875)"><path d="M0.03 1.28 L12.32 -1.25 L9.89 10.88 L-1.95 12.63" stroke="none" stroke-width="0" fill="#d2bab0"></path><path d="M1.06 -0.27 C3.25 -0.15, 5.33 0.65, 10.75 -1.06 M-0.19 0.27 C2.33 0.26, 5.45 0.39, 11.07 -0.06 M10.61 -0.51 C10.28 3.85, 11.58 6.99, 11.06 11.28 M11.47 0.35 C11.06 3.81, 11.12 7.7, 10.46 12.43 M11.37 12.7 C7.53 11.33, 2.38 12.79, -0.44 12.73 M11.38 12.34 C6.87 11.66, 2.86 11.93, 0.15 11.79 M-0.24 11.2 C-0.43 9.35, 1.09 5.08, 0.05 -0.75 M-0.49 12.41 C-0.24 9.28, -0.04 6.28, -0.5 -0.28" stroke="#a18072" stroke-width="1" fill="none"></path></g><g transform="translate(1252.6529388427734 480.57421875) rotate(0 60.38396453857422 10)"><text x="0" y="0" font-family="Virgil, Segoe UI Emoji" font-size="16px" fill="#846358" text-anchor="start" style="white-space: pre;" direction="ltr" dominant-baseline="text-before-edge">CMO Resources</text></g></svg>